<svg width="199" height="121" viewBox="0 0 199 121" fill="none" xmlns="http://www.w3.org/2000/svg">
<g clip-path="url(#clip0_6797_77)">
<circle cx="137.707" cy="61.6339" r="48.2925" fill="#C6DDC8" stroke="#568165" stroke-width="8.78046"/>
<rect width="92.1207" height="27.0415" transform="matrix(0.658413 -0.752657 -0.752657 -0.658413 111.354 101.14)" fill="#E3F2E4"/>
<rect width="87.4375" height="9.77622" transform="matrix(0.658413 -0.752657 -0.752657 -0.658413 126.939 108.565)" fill="#E3F2E4"/>
<path d="M137.966 82.6322C135.226 82.6322 132.75 82.0878 130.538 80.999C128.325 79.9103 126.551 78.2771 125.217 76.0995C123.917 73.8869 123.267 71.0947 123.267 67.723V45.1221H130.643V67.7757C130.643 69.5669 130.941 71.0595 131.539 72.2537C132.136 73.4478 132.978 74.361 134.067 74.9932C135.191 75.5903 136.543 75.8888 138.124 75.8888C139.704 75.8888 141.039 75.5903 142.128 74.9932C143.252 74.361 144.112 73.4478 144.709 72.2537C145.306 71.0595 145.605 69.5669 145.605 67.7757V45.1221H152.98V67.723C152.98 71.0947 152.296 73.8869 150.926 76.0995C149.591 78.2771 147.782 79.9103 145.499 80.999C143.217 82.0878 140.705 82.6322 137.966 82.6322Z" fill="#265B34"/>
<circle cx="137.147" cy="61.1458" r="48.2925" transform="rotate(39.3744 137.147 61.1458)" stroke="#568165" stroke-width="8.78046"/>
<path d="M168.002 31.9706C184.066 48.7317 183.382 75.4921 166.429 91.7412C149.475 107.99 122.709 107.54 106.644 90.7794C90.5793 74.0181 91.2639 47.2565 108.217 31.0073C125.171 14.7584 151.937 15.2094 168.002 31.9706Z" stroke="#FCFCFC" stroke-width="3"/>
<circle cx="59.645" cy="61.4453" r="48.2925" transform="rotate(53.5089 59.645 61.4453)" fill="#C6DDC8" stroke="#568165" stroke-width="8.78046"/>
<rect width="89.1898" height="27.0415" transform="matrix(0.658413 -0.752657 -0.752657 -0.658413 31.8125 99.4302)" fill="#E3F2E4"/>
<rect width="92.1207" height="9.77622" transform="matrix(0.658413 -0.752657 -0.752657 -0.658413 45.4678 109.062)" fill="#E3F2E4"/>
<circle cx="59.7036" cy="60.7038" r="48.2925" transform="rotate(92.8833 59.7036 60.7038)" stroke="#568165" stroke-width="8.78046"/>
<path d="M101.588 67.6897C97.6202 90.8468 75.6504 106.404 52.52 102.44C29.3895 98.4767 13.852 76.4923 17.8202 53.3351C21.7887 30.178 43.7591 14.6218 66.8894 18.5855C90.0196 22.5493 105.556 44.5327 101.588 67.6897Z" stroke="#FCFCFC" stroke-width="3"/>
<path d="M61.0368 80.4711C57.349 80.4711 54.1705 79.6808 51.5012 78.1003C48.832 76.4847 46.7774 74.2545 45.3374 71.4096C43.8974 68.5296 43.1774 65.2106 43.1774 61.4526C43.1774 57.6946 43.8974 54.3755 45.3374 51.4955C46.7774 48.6156 48.832 46.3678 51.5012 44.7522C54.1705 43.1365 57.349 42.3287 61.0368 42.3287C65.4973 42.3287 69.1675 43.4526 72.0475 45.7004C74.9275 47.9482 76.7187 51.1092 77.4212 55.1833H69.308C68.8866 53.2165 67.9558 51.7063 66.5158 50.6526C65.111 49.5638 63.2495 49.0195 60.9315 49.0195C58.789 49.0195 56.9451 49.5287 55.3998 50.5473C53.8895 51.5307 52.7305 52.9531 51.9227 54.8146C51.1149 56.676 50.711 58.8887 50.711 61.4526C50.711 64.0165 51.1149 66.2292 51.9227 68.0906C52.7305 69.917 53.8895 71.3394 55.3998 72.3579C56.9451 73.3413 58.789 73.833 60.9315 73.833C63.2495 73.833 65.111 73.3413 66.5158 72.3579C67.9207 71.3394 68.8514 69.9345 69.308 68.1433H77.4212C76.7187 71.9716 74.9275 74.9921 72.0475 77.2047C69.1675 79.3823 65.4973 80.4711 61.0368 80.4711Z" fill="#265B34"/>
<line x1="60.8701" y1="46.1316" x2="60.8701" y2="36.6456" stroke="#265B34" stroke-width="8"/>
<line x1="59.8711" y1="85.0676" x2="59.8711" y2="75.5817" stroke="#265B34" stroke-width="8"/>
</g>
<defs>
<clipPath id="clip0_6797_77">
<rect width="199" height="121" fill="white"/>
</clipPath>
</defs>
</svg>
