<svg width="347" height="117" viewBox="0 0 347 117" fill="none" xmlns="http://www.w3.org/2000/svg">
<g clip-path="url(#clip0_6565_76)">
<path d="M199.635 80V43.124H213.384C216.37 43.124 218.828 43.6332 220.76 44.6517C222.691 45.6702 224.131 47.0399 225.079 48.7608C226.028 50.4465 226.502 52.3254 226.502 54.3975C226.502 56.3642 226.045 58.208 225.132 59.9289C224.219 61.6147 222.779 62.9844 220.812 64.038C218.881 65.0564 216.387 65.5657 213.332 65.5657H206.747V80H199.635ZM218.758 80L211.172 63.7746H218.863L226.87 80H218.758ZM206.747 60.403H212.963C215.105 60.403 216.686 59.8762 217.704 58.8226C218.723 57.769 219.232 56.3818 219.232 54.6609C219.232 52.94 218.723 51.5879 217.704 50.6046C216.721 49.5861 215.14 49.0768 212.963 49.0768H206.747V60.403ZM230.393 80L243.879 43.124H251.939L265.372 80H257.839L247.882 51.2367L237.873 80H230.393ZM236.345 71.6239L238.242 66.0925H256.996L258.84 71.6239H236.345ZM270.218 80V43.124H277.33V80H270.218ZM297.267 80.6322C294.598 80.6322 292.21 80.1756 290.103 79.2625C288.03 78.3494 286.38 77.0148 285.151 75.2588C283.957 73.5028 283.342 71.378 283.307 68.8845H290.84C290.875 69.9732 291.156 70.9566 291.683 71.8346C292.21 72.7126 292.93 73.415 293.843 73.9418C294.791 74.4335 295.915 74.6793 297.214 74.6793C298.338 74.6793 299.304 74.5037 300.112 74.1525C300.955 73.7662 301.604 73.2394 302.061 72.5721C302.517 71.9048 302.746 71.1146 302.746 70.2015C302.746 69.1479 302.482 68.2699 301.956 67.5675C301.464 66.8651 300.761 66.2681 299.848 65.7764C298.97 65.2847 297.934 64.8457 296.74 64.4594C295.581 64.038 294.352 63.599 293.053 63.1424C290.138 62.1942 287.908 60.9298 286.362 59.3494C284.852 57.769 284.097 55.6794 284.097 53.0805C284.097 50.868 284.624 48.9715 285.677 47.3911C286.766 45.8107 288.259 44.599 290.155 43.7562C292.052 42.9133 294.212 42.4918 296.635 42.4918C299.128 42.4918 301.306 42.9308 303.167 43.8088C305.064 44.6517 306.556 45.8809 307.645 47.4964C308.769 49.112 309.348 51.0084 309.383 53.1859H301.797C301.762 52.3781 301.517 51.623 301.06 50.9206C300.639 50.1831 300.041 49.6036 299.269 49.1822C298.496 48.7256 297.583 48.4974 296.529 48.4974C295.616 48.4622 294.773 48.6027 294.001 48.9188C293.263 49.2349 292.666 49.709 292.21 50.3412C291.788 50.9382 291.578 51.6933 291.578 52.6064C291.578 53.4844 291.788 54.2219 292.21 54.819C292.666 55.416 293.281 55.9428 294.054 56.3994C294.826 56.8208 295.739 57.2247 296.793 57.611C297.846 57.9622 298.988 58.331 300.217 58.7173C302.043 59.3494 303.729 60.1045 305.274 60.9825C306.82 61.8254 308.049 62.9317 308.962 64.3014C309.875 65.671 310.332 67.4797 310.332 69.7274C310.332 71.659 309.822 73.4501 308.804 75.1008C307.785 76.7514 306.31 78.086 304.379 79.1044C302.482 80.1229 300.112 80.6322 297.267 80.6322ZM316.364 80V43.124H340.597V48.8661H323.476V58.5066H339.017V64.038H323.476V74.2579H340.597V80H316.364Z" fill="#265B34"/>
<circle cx="137.707" cy="59.6339" r="48.2925" fill="#C6DDC8" stroke="#568165" stroke-width="8.78046"/>
<rect width="92.1207" height="27.0415" transform="matrix(0.658413 -0.752657 -0.752657 -0.658413 111.354 99.1396)" fill="#E3F2E4"/>
<rect width="87.4375" height="9.77622" transform="matrix(0.658413 -0.752657 -0.752657 -0.658413 126.939 106.565)" fill="#E3F2E4"/>
<path d="M137.966 80.6322C135.226 80.6322 132.75 80.0878 130.538 78.999C128.325 77.9103 126.551 76.2771 125.217 74.0995C123.917 71.8869 123.267 69.0947 123.267 65.723V43.1221H130.643V65.7757C130.643 67.5669 130.941 69.0595 131.539 70.2537C132.136 71.4478 132.978 72.361 134.067 72.9932C135.191 73.5903 136.543 73.8888 138.124 73.8888C139.704 73.8888 141.039 73.5903 142.128 72.9932C143.252 72.361 144.112 71.4478 144.709 70.2537C145.306 69.0595 145.605 67.5669 145.605 65.7757V43.1221H152.98V65.723C152.98 69.0947 152.296 71.8869 150.926 74.0995C149.591 76.2771 147.782 77.9103 145.499 78.999C143.217 80.0878 140.705 80.6322 137.966 80.6322Z" fill="#265B34"/>
<circle cx="137.147" cy="59.1458" r="48.2925" transform="rotate(39.3744 137.147 59.1458)" stroke="#568165" stroke-width="8.78046"/>
<path d="M168.002 29.9706C184.066 46.7317 183.382 73.4921 166.429 89.7412C149.475 105.99 122.709 105.54 106.644 88.7794C90.5793 72.0181 91.2639 45.2565 108.217 29.0073C125.171 12.7584 151.937 13.2094 168.002 29.9706Z" stroke="#FCFCFC" stroke-width="3"/>
<circle cx="59.645" cy="59.4453" r="48.2925" transform="rotate(53.5089 59.645 59.4453)" fill="#C6DDC8" stroke="#568165" stroke-width="8.78046"/>
<rect width="89.1898" height="27.0415" transform="matrix(0.658413 -0.752657 -0.752657 -0.658413 31.8125 97.4302)" fill="#E3F2E4"/>
<rect width="92.1207" height="9.77622" transform="matrix(0.658413 -0.752657 -0.752657 -0.658413 45.4678 107.062)" fill="#E3F2E4"/>
<circle cx="59.7036" cy="58.7038" r="48.2925" transform="rotate(92.8833 59.7036 58.7038)" stroke="#568165" stroke-width="8.78046"/>
<path d="M101.588 65.6897C97.6202 88.8468 75.6504 104.404 52.52 100.44C29.3895 96.4767 13.852 74.4923 17.8202 51.3351C21.7887 28.178 43.7591 12.6218 66.8894 16.5855C90.0196 20.5493 105.556 42.5327 101.588 65.6897Z" stroke="#FCFCFC" stroke-width="3"/>
<path d="M61.0368 78.4711C57.349 78.4711 54.1705 77.6808 51.5012 76.1003C48.832 74.4847 46.7774 72.2545 45.3374 69.4096C43.8974 66.5296 43.1774 63.2106 43.1774 59.4526C43.1774 55.6946 43.8974 52.3755 45.3374 49.4955C46.7774 46.6156 48.832 44.3678 51.5012 42.7522C54.1705 41.1365 57.349 40.3287 61.0368 40.3287C65.4973 40.3287 69.1675 41.4526 72.0475 43.7004C74.9275 45.9482 76.7187 49.1092 77.4212 53.1833H69.308C68.8866 51.2165 67.9558 49.7063 66.5158 48.6526C65.111 47.5638 63.2495 47.0195 60.9315 47.0195C58.789 47.0195 56.9451 47.5287 55.3998 48.5473C53.8895 49.5307 52.7305 50.9531 51.9227 52.8146C51.1149 54.676 50.711 56.8887 50.711 59.4526C50.711 62.0165 51.1149 64.2292 51.9227 66.0906C52.7305 67.917 53.8895 69.3394 55.3998 70.3579C56.9451 71.3413 58.789 71.833 60.9315 71.833C63.2495 71.833 65.111 71.3413 66.5158 70.3579C67.9207 69.3394 68.8514 67.9345 69.308 66.1433H77.4212C76.7187 69.9716 74.9275 72.9921 72.0475 75.2047C69.1675 77.3823 65.4973 78.4711 61.0368 78.4711Z" fill="#265B34"/>
<line x1="60.8701" y1="44.1316" x2="60.8701" y2="34.6456" stroke="#265B34" stroke-width="8"/>
<line x1="59.8711" y1="83.0676" x2="59.8711" y2="73.5817" stroke="#265B34" stroke-width="8"/>
</g>
<defs>
<clipPath id="clip0_6565_76">
<rect width="347" height="117" fill="white"/>
</clipPath>
</defs>
</svg>
